<svg width="240" height="78" viewBox="0 0 240 78" fill="none" xmlns="http://www.w3.org/2000/svg">
<g clip-path="url(#clip0_61_285)">
<path d="M223.436 24.96C226.881 25.415 230.765 26.4062 233.154 27.43L233.658 27.6413L233.625 43.5988L233.593 59.5563L233.316 60.5963C232.016 65.3413 228.149 68.1525 221.665 69.0625C219.894 69.3063 215.831 69.3063 214.239 69.0625C210.794 68.5263 208.113 67.3725 206.049 65.5038C202.555 62.3675 200.638 57.7038 199.971 50.7C199.776 48.685 199.809 43.8587 200.02 41.8925C201.174 31.3463 205.886 26.0163 215.084 24.8463C216.628 24.6513 221.665 24.7162 223.42 24.96H223.436ZM233.658 11.0013C233.658 20.605 233.641 21.9862 233.495 21.9538C233.414 21.905 232.813 21.7262 232.179 21.5312C225.386 19.4188 217.359 18.9312 211.249 20.28C208.519 20.8812 205.448 22.1975 203.433 23.6275C201.905 24.7162 199.809 26.8612 198.753 28.4375C195.681 33.0525 194.268 38.7562 194.268 46.5238C194.268 50.0825 194.511 52.845 195.096 55.7375C197.355 66.9825 204.196 73.32 215.1 74.295C216.839 74.4575 220.918 74.36 222.608 74.1325C227.938 73.4175 231.724 71.76 234.584 68.8838C236.778 66.6738 238.045 64.285 238.776 60.97L238.988 59.9625L239.02 29.9813L239.053 0H233.641V11.0013H233.658Z" fill="#394180"/>
<path d="M163.036 19.4836C156.764 19.9061 150.15 21.6449 144.397 24.3911L142.902 25.1061V73.5636H148.427V28.3561L149.711 27.8849C156.845 25.2524 164.775 24.3261 170.462 25.4636C175.695 26.5036 178.815 29.1849 180.147 33.7836C180.797 36.0099 180.765 35.1649 180.797 55.2499L180.846 73.5636H186.371L186.322 54.7299C186.274 34.4824 186.322 35.6361 185.77 33.1336C184.096 25.3661 178.506 20.6699 169.699 19.6461C168.025 19.4511 164.84 19.3699 163.036 19.4836Z" fill="#394180"/>
<path d="M32.2398 49.6438C34.0273 49.8063 37.0661 50.1476 37.8461 50.2938L38.1873 50.3588V56.1926C38.1873 59.6376 38.1386 62.4163 38.0736 63.0176C37.4398 68.7538 33.0361 72.0851 25.0736 72.8489C23.4648 73.0114 19.1098 72.9138 17.6636 72.6863C13.4386 72.0363 10.3348 70.7038 8.30358 68.6563C7.03608 67.3888 6.28858 66.0563 5.80108 64.3176C5.55733 63.4076 5.52483 63.1151 5.52483 61.4901C5.52483 59.8651 5.55733 59.5563 5.80108 58.6626C6.28858 56.8426 7.14983 55.4288 8.57983 54.0638C9.57108 53.1213 10.4323 52.5363 11.9273 51.8051C14.3648 50.6188 17.2248 49.9363 21.6773 49.4651C22.6848 49.3676 30.4361 49.4976 32.2561 49.6601L32.2398 49.6438ZM116.48 25.0576C120.477 25.7888 123.581 27.5926 125.97 30.5826C127.042 31.9151 128.164 33.9626 128.879 35.8801C129.626 37.8463 130.292 40.9501 130.455 43.0788C130.487 43.5338 130.536 44.2001 130.569 44.5576L130.634 45.2076H95.3548L95.4198 44.0701C95.5011 42.5426 95.7611 40.7226 96.0698 39.2438C97.8573 30.7613 102.505 26.0163 110.077 24.9438C111.426 24.7488 115.212 24.7976 116.48 25.0413V25.0576ZM111.117 19.5976C98.6698 20.4913 91.1948 29.1688 89.8136 44.3626L89.7486 45.1263H69.0298V20.3288H63.4073V45.1263H43.6473L43.5823 43.5826C43.3061 37.0663 41.5186 32.2888 38.1061 28.8763C35.5223 26.3088 32.4186 24.7326 28.1448 23.8876C24.5536 23.1563 19.3861 23.0588 14.9661 23.6276C12.3011 23.9688 8.49858 24.7813 6.32108 25.4801L5.54108 25.7238L5.50858 28.3888C5.50858 30.1113 5.50858 31.0538 5.58983 31.0538C5.63858 31.0538 6.35358 30.8588 7.16608 30.6313C10.0586 29.8026 13.6336 29.1526 16.7861 28.8438C18.7686 28.6488 22.7336 28.6813 24.3748 28.8926C31.1836 29.7863 35.2136 32.7276 37.0336 38.2038C37.5698 39.8126 37.8948 41.6976 38.0411 44.1351L38.1061 45.2888L36.7248 45.0451C33.4261 44.4763 30.2736 44.2488 25.9023 44.2488C22.3436 44.2488 20.3936 44.3788 17.7773 44.7851C7.88108 46.3938 1.96608 50.7651 0.422333 57.5901C-0.195167 60.4013 -0.0814166 63.9926 0.763583 66.5276C2.45358 71.6788 6.80859 75.2213 13.5686 76.9276C20.1823 78.5851 27.8198 78.2601 33.5236 76.0664C38.3823 74.2139 41.5186 71.1101 42.8836 66.8363C43.3278 65.4497 43.5661 62.2863 43.5986 57.3463L43.6473 50.6026H63.4398V63.0663C63.4398 74.8801 63.4398 75.5138 63.6348 75.4651C63.7323 75.4488 64.9186 75.4001 66.2673 75.3513C67.6161 75.3026 68.8023 75.2538 68.8998 75.2376C69.0623 75.1888 69.0786 74.5063 69.0786 62.8876V50.6026H89.7811L89.8461 51.6101C90.1711 56.2738 91.5523 60.9051 93.5673 64.2201C95.0623 66.6738 97.3861 68.9976 99.8073 70.5088C103.106 72.5563 107.087 73.7426 111.946 74.1488C113.782 74.3114 118.04 74.2138 120.234 73.9863C124.637 73.5151 129.155 72.4426 131.917 71.2076L132.632 70.8826V65.1951L131.462 65.7638C125.856 68.4126 116.837 69.5826 110.272 68.5263C102.732 67.3076 98.1173 63.1313 96.6711 56.2251C96.5411 55.6238 96.3136 54.6813 96.1348 54.1288C95.7448 52.8288 95.5336 51.8701 95.4523 50.8788L95.3873 50.0826H136.142L136.207 49.5951C136.321 48.8151 136.175 43.7938 135.996 42.2663C134.891 33.1338 131.479 26.6013 125.84 22.8476C122.054 20.3126 116.886 19.1588 111.15 19.5651L111.117 19.5976Z" fill="#394180"/>
</g>
<defs>
<clipPath id="clip0_61_285">
<rect width="239.07" height="78" fill="white"/>
</clipPath>
</defs>
</svg>
